<svg width="11" height="13" viewBox="0 0 11 13" fill="none" xmlns="http://www.w3.org/2000/svg">
<path d="M6.37129 0.916667C6.86253 1.39805 7.19965 2.03612 7.30176 2.75H10.5426C10.7957 2.75 11.0009 2.9552 11.0009 3.20833C11.0009 3.46146 10.7957 3.66667 10.5426 3.66667H7.30176C7.07936 5.22147 5.74222 6.41667 4.12592 6.41667H1.56577L7.20001 12.0509C7.379 12.2299 7.379 12.5201 7.20001 12.6991C7.02102 12.8781 6.73082 12.8781 6.55183 12.6991L0.135162 6.28242C-0.153572 5.99369 0.0509207 5.5 0.459252 5.5H4.12592C5.23461 5.5 6.15941 4.71269 6.37174 3.66667H0.459252C0.206122 3.66667 0.000918785 3.46146 0.000918785 3.20833C0.000918785 2.9552 0.206122 2.75 0.459252 2.75H6.37174C6.15941 1.70397 5.23461 0.916667 4.12592 0.916667H0.459252C0.206122 0.916667 0.000918785 0.711464 0.000918785 0.458333C0.000918785 0.205203 0.206122 0 0.459252 0H4.12592H10.5426C10.7957 0 11.0009 0.205203 11.0009 0.458333C11.0009 0.711464 10.7957 0.916667 10.5426 0.916667H6.37129Z" fill="#0E0E0E"/>
</svg>
